<svg width="100%" height="100%" viewBox="0 0 13 14" fill="none" xmlns="http://www.w3.org/2000/svg">
<path fillRule="evenodd" clipRule="evenodd" d="M12.994 2.16864V4.2776C13.0004 4.85101 12.7994 5.40374 12.435 5.8142C12.0708 6.22462 11.5731 6.45916 11.0515 6.46616H10.2552C9.98544 6.4344 9.78086 6.18409 9.78086 5.88582C9.78086 5.58755 9.98544 5.33729 10.2552 5.30554H11.0274C11.2716 5.3038 11.5051 5.19499 11.6761 5.00327C11.8472 4.81153 11.9415 4.55272 11.9383 4.28423V2.16864C11.9318 1.61855 11.5277 1.17436 11.0274 1.16722H9.10301C8.59991 1.16722 8.19212 1.61557 8.19212 2.16864V5.33207C8.18227 5.65283 7.94108 5.90623 7.6492 5.9024C7.50894 5.89894 7.37572 5.83387 7.27938 5.72173C7.18305 5.60958 7.13153 5.45971 7.13645 5.30554V2.16864C7.13481 1.59409 7.34131 1.04247 7.7103 0.635578C8.0793 0.228686 8.58041 0 9.10301 0H11.0274C12.1051 0.0281326 12.9717 0.983795 12.994 2.16864ZM3.89698 0H1.97262C0.885916 0.00724316 0.00658895 0.973943 0 2.16864V4.28423C0.00661632 5.47783 0.886887 6.44265 1.97262 6.44626H3.89698C4.4196 6.44803 4.92136 6.22101 5.29148 5.81538C5.66157 5.4097 5.86964 4.85877 5.86964 4.28423V2.16864C5.86628 0.972447 4.98506 0.00364 3.89698 0ZM4.80789 4.28423C4.81111 4.55272 4.71676 4.81153 4.54575 5.00327C4.37475 5.19499 4.14123 5.3038 3.89698 5.30554H1.97262C1.72474 5.31101 1.48554 5.20517 1.31024 5.01243C1.13492 4.8197 1.03865 4.55673 1.04362 4.28423V2.16864C1.04357 1.89956 1.14202 1.64179 1.31678 1.4534C1.49154 1.26502 1.72791 1.16187 1.97262 1.16722H3.89698C4.39869 1.17083 4.8046 1.61707 4.80789 2.16864V4.28423ZM9.10301 7.55374H11.0274C12.1131 7.55735 12.9934 8.52217 13 9.71578V11.8313C12.9934 13.026 12.1141 13.9928 11.0274 14H9.10301C8.01731 13.9927 7.13974 13.025 7.13645 11.8313V9.71578C7.13645 8.52173 8.0169 7.55374 9.10301 7.55374ZM11.6732 12.5414C11.8444 12.3532 11.9399 12.0975 11.9383 11.8313V9.71578C11.9383 9.45015 11.8423 9.19549 11.6715 9.00767C11.5007 8.81985 11.2689 8.71434 11.0274 8.71434H9.10301C8.59991 8.71434 8.19212 9.16271 8.19212 9.71578V11.8313C8.19048 12.0975 8.28593 12.3532 8.45712 12.5414C8.62831 12.7296 8.86094 12.8345 9.10301 12.8328H11.0274C11.2694 12.8345 11.5021 12.7296 11.6732 12.5414ZM0 11.8248V9.71578C0 9.14126 0.208021 8.59033 0.578131 8.18469C0.948247 7.77899 1.45001 7.55204 1.97262 7.55381H2.76288C2.96493 7.53001 3.16161 7.63508 3.2694 7.82445C3.37719 8.0139 3.37719 8.25425 3.2694 8.44362C3.16161 8.63306 2.96493 8.73814 2.76288 8.71434H1.97262C1.46856 8.71434 1.059 9.16167 1.05568 9.71578V11.8049C1.0685 12.3546 1.47254 12.7958 1.97262 12.8062H3.90904C4.15168 12.808 4.38493 12.7033 4.55706 12.5153C4.7292 12.3273 4.82599 12.0716 4.82598 11.8049V8.66792C4.78664 8.43367 4.88075 8.19663 5.06375 8.06908C5.24673 7.94154 5.48189 7.94905 5.65787 8.08809C5.83378 8.22714 5.91521 8.46978 5.86355 8.70107V11.8248C5.86355 13.0224 4.9804 13.9934 3.89095 13.9934H1.97262C0.892594 13.9688 0.0224079 13.0121 0 11.8248Z" fill="currentColor"/>
</svg>
