<svg width="100%" height="100%" viewBox="0 0 13 15" fill="none" xmlns="http://www.w3.org/2000/svg">
<path fillRule="evenodd" clipRule="evenodd" d="M12.8406 4.16738L8.97925 0.183487C8.87097 0.0717374 8.72231 0.00905997 8.56677 0.00905997H8.40978C8.40289 0.00838497 8.39647 0.00647999 8.39012 0.00459749C8.3824 0.00228749 8.37468 0 8.36627 0C8.35739 0 8.34937 0.00234742 8.34141 0.00467992C8.33514 0.00653992 8.32879 0.00839247 8.32206 0.00905997H3.49472C1.60022 0.00905997 0 1.55777 0 3.39114V6.51045C0 6.82305 0.256161 7.07678 0.571778 7.07678C0.887403 7.07678 1.14356 6.82305 1.14356 6.51045V3.39114C1.14356 2.17166 2.22003 1.14171 3.49472 1.14171H7.79449V2.76365C7.79449 4.14548 8.92894 5.27133 10.3233 5.27435H10.3241C10.6397 5.27435 10.8951 5.02139 10.8958 4.70954C10.8966 4.39618 10.6412 4.14246 10.3256 4.14171C9.5602 4.1402 8.93804 3.52177 8.93804 2.76365V1.77674L11.8565 4.78732V11.4812C11.8565 12.7521 10.7952 13.8673 9.58536 13.8673H3.49472C2.17657 13.8673 1.14356 12.8193 1.14356 11.4812V9.58897C1.14356 9.27637 0.887403 9.02265 0.571778 9.02265C0.256161 9.02265 0 9.27637 0 9.58897V11.4812C0 13.4543 1.53542 15 3.49472 15H9.58536C11.4364 15 13 13.3886 13 11.4812V4.56003C13 4.41354 12.9428 4.2731 12.8406 4.16738ZM4.10652 10.804H8.22181C8.53748 10.804 8.79358 10.5503 8.79358 10.2376C8.79358 9.92505 8.53748 9.67132 8.22181 9.67132H4.10652C3.79091 9.67132 3.53475 9.92505 3.53475 10.2376C3.53475 10.5503 3.79091 10.804 4.10652 10.804ZM6.66502 7.06463H4.10652C3.79091 7.06463 3.53475 6.8109 3.53475 6.4983C3.53475 6.1857 3.79091 5.93197 4.10652 5.93197H6.66502C6.98069 5.93197 7.23687 6.1857 7.23687 6.4983C7.23687 6.8109 6.98069 7.06463 6.66502 7.06463Z" fill="currentColor"/>
</svg>
