<svg width="100%" height="100%" viewBox="0 0 16 16" fill="none" xmlns="http://www.w3.org/2000/svg">
<path fillRule="evenodd" clipRule="evenodd" d="M1.20003 9.64118C1.20003 9.98122 0.931232 10.2572 0.600096 10.2572C0.26896 10.2572 0.000152016 9.98122 0.000152016 9.64118V3.54894C0.000152016 1.59207 1.55065 0 3.45721 0H7.254C9.1644 0 10.7188 1.59607 10.7188 3.55774V4.30257C10.7188 4.64179 10.45 4.91779 10.1189 4.91779C9.78776 4.91779 9.51896 4.64179 9.51896 4.30257V3.55774C9.51896 2.27449 8.50296 1.23205 7.254 1.23205H3.45721C2.21214 1.23205 1.20003 2.27209 1.20003 3.54894V9.64118ZM9.5188 11.6982C9.5188 11.3582 9.7876 11.0822 10.1187 11.0822C10.4498 11.0822 10.7186 11.3582 10.7186 11.6982V12.451C10.7186 14.4079 9.16816 16 7.2616 16H3.46406C1.55438 16 0 14.404 0 12.4423C0 12.1022 0.2688 11.827 0.599936 11.827C0.931072 11.827 1.19988 12.1022 1.19988 12.4423C1.19988 13.7255 2.21588 14.7679 3.46406 14.7679H7.2616C8.50664 14.7679 9.5188 13.7287 9.5188 12.451V11.6982ZM15.9546 7.76497C15.8619 7.53373 15.643 7.38333 15.3999 7.38333H6.03928C5.70814 7.38333 5.43856 7.66013 5.43856 8.00017C5.43856 8.34021 5.70814 8.61617 6.03928 8.61617H13.9476L12.7002 9.89145C12.4649 10.1315 12.4649 10.5211 12.6986 10.7627C12.8154 10.8835 12.9698 10.9443 13.1232 10.9443C13.2767 10.9443 13.4294 10.8835 13.5471 10.7643L15.8238 8.43697C15.9951 8.26097 16.0474 7.99537 15.9546 7.76497ZM13.6974 6.87217C13.5447 6.87217 13.392 6.81221 13.2752 6.69381L12.701 6.11057C12.4656 5.87135 12.4641 5.48094 12.697 5.24013C12.9308 4.99692 13.3094 4.99532 13.5455 5.23533L14.119 5.81775C14.355 6.05776 14.3566 6.44741 14.1237 6.68901C14.006 6.81061 13.8518 6.87217 13.6974 6.87217Z" fill="currentColor"/>
</svg>
