<svg width="100%" height="100%" viewBox="0 0 10 15" fill="none" xmlns="http://www.w3.org/2000/svg">
<path fillRule="evenodd" clipRule="evenodd" d="M2.53648 4.0154C2.53648 2.39544 3.64151 1.07772 5 1.07772C6.3585 1.07772 7.4635 2.39544 7.4635 4.0154C7.4635 5.63461 6.3585 6.95235 5 6.95235C3.64151 6.95235 2.53648 5.63461 2.53648 4.0154ZM1.63271 4.0154C1.63271 6.2286 3.14339 8.03003 5 8.03003C6.85663 8.03003 8.36669 6.2286 8.36669 4.0154C8.36669 1.80145 6.85663 0 5 0C3.14339 0 1.63271 1.80145 1.63271 4.0154ZM4.361 14.9888C4.57044 14.9963 4.78363 15 5 15C7.14656 15 10 14.7142 10 12.2476C10 9.4794 6.2365 9.4794 5 9.4794C2.85346 9.4794 0 9.76515 0 12.2326C0 12.9713 0.28805 13.968 1.66037 14.5223C1.89748 14.6198 2.15283 14.466 2.23333 14.1847C2.31321 13.9035 2.18679 13.5982 1.95031 13.503C1.01132 13.1236 0.903144 12.5963 0.903144 12.2326C0.903144 11.1203 2.28176 10.5563 5 10.5563C7.71825 10.5563 9.09688 11.1256 9.09688 12.2476C9.09688 13.3591 7.71825 13.9222 5 13.9222C4.79244 13.9222 4.58806 13.9192 4.38681 13.9125C4.14531 13.9147 3.93019 14.1382 3.92325 14.4352C3.91575 14.733 4.11194 14.9813 4.361 14.9888Z" fill="currentColor"/>
</svg>
