<svg width="100%" height="100%" viewBox="0 0 13 15" fill="none" xmlns="http://www.w3.org/2000/svg">
<path fillRule="evenodd" clipRule="evenodd" d="M4.40756 3.65585C3.84428 3.99806 3.15334 3.99315 2.59436 3.64295L2.56974 3.6166C2.31823 3.44924 2.24108 3.09532 2.39743 2.82609C2.55377 2.55685 2.88442 2.47427 3.13594 2.64163C3.24821 2.71176 3.37524 2.75029 3.50519 2.75363C3.70436 2.76254 3.89867 2.68631 4.04529 2.54173C4.1919 2.39714 4.27879 2.19608 4.28678 1.98287C4.28299 0.911587 5.07729 0.03213 6.07764 0H6.92079C7.94047 0 8.76706 0.884812 8.76706 1.97629C8.76542 2.11521 8.79949 2.25195 8.86552 2.37154C8.96357 2.55669 9.12668 2.6922 9.31854 2.74788C9.51046 2.80356 9.71517 2.77479 9.88711 2.66798C10.7535 2.16314 11.8376 2.47645 12.3488 3.37945C12.4901 3.65501 12.4032 4.00083 12.1519 4.16337C11.8965 4.31946 11.5714 4.2288 11.4195 3.95916C11.211 3.5789 10.7551 3.44956 10.3979 3.6693C9.83279 4.00055 9.14721 3.99247 8.58903 3.64796C8.03078 3.30346 7.68081 2.67238 7.66548 1.98287C7.67212 1.76694 7.59665 1.55736 7.45625 1.40212C7.31585 1.24689 7.12263 1.15931 6.92079 1.15942H6.07764C5.87531 1.15936 5.68148 1.24674 5.54012 1.40176C5.39876 1.55678 5.32186 1.76632 5.32685 1.98287C5.32117 2.67613 4.97084 3.31364 4.40756 3.65585ZM5.32685 13.0435C5.33021 13.4848 5.6654 13.8406 6.07764 13.8406L6.07148 13.8538C6.26278 13.8538 6.43958 13.963 6.53517 14.1404C6.63082 14.3177 6.63082 14.5361 6.53517 14.7134C6.43958 14.8908 6.26278 15 6.07148 15C5.05184 15 4.22524 14.1152 4.22524 13.0238C4.2269 12.8848 4.19284 12.7481 4.12677 12.6284C3.92028 12.2459 3.46393 12.1134 3.10517 12.332C2.2388 12.8368 1.15472 12.5236 0.643473 11.6206L0.224982 10.8366C-0.246658 9.90922 0.0460476 8.74882 0.889638 8.20155C1.00145 8.1312 1.09465 8.03137 1.16043 7.91175C1.28385 7.72755 1.32821 7.49587 1.2824 7.27462C1.23659 7.05337 1.10496 6.8634 0.920414 6.75233C0.0768165 6.20505 -0.215882 5.04463 0.255751 4.11726C0.334668 3.99027 0.457621 3.90219 0.597384 3.87251C0.737141 3.84284 0.882194 3.87402 1.00042 3.95916C1.23395 4.12914 1.30166 4.46545 1.15427 4.72332C0.95058 5.10537 1.07452 5.59182 1.43121 5.81028C1.6992 5.98606 1.91979 6.23355 2.07126 6.5283C2.54289 7.45568 2.25019 8.61615 1.40659 9.16335C1.0499 9.38183 0.925963 9.86828 1.12965 10.2503L1.5543 11.0342C1.65092 11.221 1.81455 11.3576 2.00737 11.4123C2.2002 11.4671 2.40552 11.4352 2.5759 11.3241C2.85062 11.1536 3.163 11.0648 3.48057 11.0672C4.50024 11.0672 5.32685 11.952 5.32685 13.0435ZM12.1027 8.19502C11.9307 8.08897 11.8054 7.91385 11.7546 7.70858C11.7038 7.50323 11.7316 7.28475 11.8318 7.10145C11.8977 6.98175 11.9909 6.882 12.1027 6.81157C12.3552 6.6492 12.4377 6.29887 12.2873 6.02767C12.1378 5.75998 11.8186 5.66446 11.5611 5.81028C10.7175 6.35752 10.4248 7.51793 10.8965 8.4453C11.0462 8.7693 11.2789 9.04117 11.5673 9.22927C11.7387 9.33397 11.8639 9.5079 11.9148 9.7122C11.9657 9.91643 11.938 10.1339 11.838 10.3162L11.4195 11.1001C11.3188 11.2836 11.1556 11.4182 10.9641 11.4756C10.7723 11.5304 10.568 11.4994 10.3979 11.3899C9.83183 11.0582 9.14502 11.067 8.58643 11.413C8.02784 11.7592 7.67869 12.3923 7.66548 13.083C7.6949 13.3776 7.92719 13.601 8.20396 13.601C8.48072 13.601 8.71301 13.3776 8.74243 13.083C8.73737 12.7952 8.87886 12.5272 9.11177 12.3833C9.34474 12.2395 9.63231 12.2426 9.86255 12.3913C10.7289 12.8962 11.813 12.5828 12.3242 11.6798L12.7427 10.8959C13.2595 9.96038 12.9735 8.75377 12.1027 8.19502ZM6.49617 5.02634C5.55969 5.02634 4.71552 5.63055 4.35772 6.55695C3.99992 7.48328 4.19903 8.54918 4.8621 9.2571C5.5252 9.96495 6.52148 10.1753 7.38598 9.78975C8.25041 9.40433 8.81263 8.49915 8.81017 7.4967C8.81017 6.84037 8.56618 6.21105 8.13205 5.74756C7.69791 5.28409 7.10929 5.02459 6.49617 5.02634ZM6.49617 8.82082C5.8164 8.82082 5.26527 8.23095 5.26527 7.5033C5.26527 6.77565 5.8164 6.18577 6.49617 6.18577C7.17593 6.18577 7.72699 6.77565 7.72699 7.5033C7.72699 8.23095 7.17593 8.82082 6.49617 8.82082Z" fill="currentColor"/>
</svg>
